<svg width="25" height="23" viewBox="0 0 25 23" fill="none" xmlns="http://www.w3.org/2000/svg">
<path d="M23.9404 8.06784H18.7539L15.8446 1.40607C15.6827 1.03542 15.251 0.86603 14.8802 1.02799C14.5095 1.18986 14.3403 1.62165 14.5022 1.99235L17.1555 8.06789H7.84456L10.4979 1.99235C10.6597 1.62165 10.4905 1.18991 10.1198 1.02799C9.74915 0.86603 9.31731 1.03532 9.15549 1.40607L6.24612 8.06784H1.05964C0.381177 8.06784 -0.122338 8.68205 0.0260991 9.32858L2.7573 21.2246C2.86575 21.6969 3.29514 22.0327 3.79085 22.0327H21.2092C21.7049 22.0327 22.1343 21.6969 22.2428 21.2246L24.974 9.32858C25.1224 8.6821 24.6188 8.06784 23.9404 8.06784ZM6.38391 10.3141C6.28606 10.3141 6.1866 10.2944 6.09114 10.2527C5.72044 10.0908 5.55115 9.6591 5.71306 9.28834L6.26326 8.02848H7.86169L7.05544 9.87457C6.93528 10.1499 6.66624 10.3141 6.38391 10.3141ZM8.83792 18.1264C8.83792 18.5309 8.50999 18.8589 8.10549 18.8589C7.701 18.8589 7.37307 18.5309 7.37307 18.1264V12.7553C7.37307 12.3508 7.701 12.0229 8.10549 12.0229C8.50999 12.0229 8.83792 12.3508 8.83792 12.7553V18.1264ZM13.2324 18.1264C13.2324 18.5309 12.9045 18.8589 12.5 18.8589C12.0955 18.8589 11.7676 18.5309 11.7676 18.1264V12.7553C11.7676 12.3508 12.0955 12.0229 12.5 12.0229C12.9045 12.0229 13.2324 12.3508 13.2324 12.7553V18.1264ZM17.627 18.1264C17.627 18.5309 17.299 18.8589 16.8946 18.8589C16.4901 18.8589 16.1621 18.5309 16.1621 18.1264V12.7553C16.1621 12.3508 16.4901 12.0229 16.8946 12.0229C17.299 12.0229 17.627 12.3508 17.627 12.7553V18.1264ZM18.9089 10.2527C18.8135 10.2944 18.714 10.3141 18.6161 10.3141C18.3338 10.3141 18.0648 10.15 17.9446 9.87462L17.1383 8.02853H18.7367L19.2869 9.28839C19.4489 9.6591 19.2796 10.0908 18.9089 10.2527Z" fill="#6F73EE"/>
</svg>
